<?xml version="1.0" encoding="UTF-8" standalone="no"?>
<!-- Created with Inkscape (http://www.inkscape.org/) -->

<svg
   width="250.00002"
   height="120"
   viewBox="0 0 66.145837 31.75"
   version="1.1"
   id="svg1"
   inkscape:version="1.3.2 (091e20ef0f, 2023-11-25)"
   sodipodi:docname="martinvock.svg"
   xmlns:inkscape="http://www.inkscape.org/namespaces/inkscape"
   xmlns:sodipodi="http://sodipodi.sourceforge.net/DTD/sodipodi-0.dtd"
   xmlns="http://www.w3.org/2000/svg"
   xmlns:svg="http://www.w3.org/2000/svg">
  <sodipodi:namedview
     id="namedview1"
     pagecolor="#ffffff"
     bordercolor="#000000"
     borderopacity="0.25"
     inkscape:showpageshadow="2"
     inkscape:pageopacity="0.0"
     inkscape:pagecheckerboard="0"
     inkscape:deskcolor="#d1d1d1"
     inkscape:document-units="mm"
     inkscape:zoom="1.0039913"
     inkscape:cx="221.61547"
     inkscape:cy="345.12251"
     inkscape:window-width="2256"
     inkscape:window-height="1409"
     inkscape:window-x="0"
     inkscape:window-y="0"
     inkscape:window-maximized="1"
     inkscape:current-layer="layer1" />
  <defs
     id="defs1">
    <clipPath
       clipPathUnits="userSpaceOnUse"
       id="clipPath6">
      <path
         d="M 0,380 H 1875 V 0 H 0 Z"
         id="path6" />
    </clipPath>
    <clipPath
       clipPathUnits="userSpaceOnUse"
       id="clipPath8">
      <path
         d="M 0,380 H 1875 V 0 H 0 Z"
         id="path8" />
    </clipPath>
    <clipPath
       clipPathUnits="userSpaceOnUse"
       id="clipPath10">
      <path
         d="M 0,380 H 1875 V 0 H 0 Z"
         id="path10" />
    </clipPath>
    <clipPath
       clipPathUnits="userSpaceOnUse"
       id="clipPath12">
      <path
         d="M 0,380 H 1875 V 0 H 0 Z"
         id="path12" />
    </clipPath>
    <clipPath
       clipPathUnits="userSpaceOnUse"
       id="clipPath14">
      <path
         d="M 0,380 H 1875 V 0 H 0 Z"
         id="path14" />
    </clipPath>
    <clipPath
       clipPathUnits="userSpaceOnUse"
       id="clipPath16">
      <path
         d="M 0,380 H 1875 V 0 H 0 Z"
         id="path16" />
    </clipPath>
    <clipPath
       clipPathUnits="userSpaceOnUse"
       id="clipPath18">
      <path
         d="M 0,380 H 1875 V 0 H 0 Z"
         id="path18" />
    </clipPath>
    <clipPath
       clipPathUnits="userSpaceOnUse"
       id="clipPath20">
      <path
         d="M 0,380 H 1875 V 0 H 0 Z"
         id="path20" />
    </clipPath>
    <clipPath
       clipPathUnits="userSpaceOnUse"
       id="clipPath22">
      <path
         d="M 0,380 H 1875 V 0 H 0 Z"
         id="path22" />
    </clipPath>
    <clipPath
       clipPathUnits="userSpaceOnUse"
       id="clipPath24">
      <path
         d="M 0,380 H 1875 V 0 H 0 Z"
         id="path24" />
    </clipPath>
    <clipPath
       clipPathUnits="userSpaceOnUse"
       id="clipPath26">
      <path
         d="M 0,380 H 1875 V 0 H 0 Z"
         id="path26" />
    </clipPath>
    <clipPath
       clipPathUnits="userSpaceOnUse"
       id="clipPath28">
      <path
         d="M 0,380 H 1875 V 0 H 0 Z"
         id="path28" />
    </clipPath>
    <clipPath
       clipPathUnits="userSpaceOnUse"
       id="clipPath30">
      <path
         d="M 0,380 H 1875 V 0 H 0 Z"
         id="path30" />
    </clipPath>
    <clipPath
       clipPathUnits="userSpaceOnUse"
       id="clipPath32">
      <path
         d="M 0,380 H 1875 V 0 H 0 Z"
         id="path32" />
    </clipPath>
    <clipPath
       clipPathUnits="userSpaceOnUse"
       id="clipPath34">
      <path
         d="M 0,380 H 1875 V 0 H 0 Z"
         id="path34" />
    </clipPath>
    <clipPath
       clipPathUnits="userSpaceOnUse"
       id="clipPath36">
      <path
         d="M 0,380 H 1875 V 0 H 0 Z"
         id="path36" />
    </clipPath>
    <clipPath
       clipPathUnits="userSpaceOnUse"
       id="clipPath38">
      <path
         d="M 0,380 H 1875 V 0 H 0 Z"
         id="path38" />
    </clipPath>
    <clipPath
       clipPathUnits="userSpaceOnUse"
       id="clipPath40">
      <path
         d="M 0,380 H 1875 V 0 H 0 Z"
         id="path40" />
    </clipPath>
    <clipPath
       clipPathUnits="userSpaceOnUse"
       id="clipPath42">
      <path
         d="M 0,380 H 1875 V 0 H 0 Z"
         id="path42" />
    </clipPath>
    <clipPath
       clipPathUnits="userSpaceOnUse"
       id="clipPath44">
      <path
         d="M 0,380 H 1875 V 0 H 0 Z"
         id="path44" />
    </clipPath>
    <clipPath
       clipPathUnits="userSpaceOnUse"
       id="clipPath46">
      <path
         d="M 0,380 H 1875 V 0 H 0 Z"
         id="path46" />
    </clipPath>
    <clipPath
       clipPathUnits="userSpaceOnUse"
       id="clipPath48">
      <path
         d="M 0,380 H 1875 V 0 H 0 Z"
         id="path48" />
    </clipPath>
    <clipPath
       clipPathUnits="userSpaceOnUse"
       id="clipPath50">
      <path
         d="M 0,380 H 1875 V 0 H 0 Z"
         id="path50" />
    </clipPath>
    <clipPath
       clipPathUnits="userSpaceOnUse"
       id="clipPath52">
      <path
         d="M 0,380 H 1875 V 0 H 0 Z"
         id="path52" />
    </clipPath>
    <clipPath
       clipPathUnits="userSpaceOnUse"
       id="clipPath54">
      <path
         d="M 0,380 H 1875 V 0 H 0 Z"
         id="path54" />
    </clipPath>
    <clipPath
       clipPathUnits="userSpaceOnUse"
       id="clipPath56">
      <path
         d="M 0,380 H 1875 V 0 H 0 Z"
         id="path56" />
    </clipPath>
    <clipPath
       clipPathUnits="userSpaceOnUse"
       id="clipPath58">
      <path
         d="M 0,380 H 1875 V 0 H 0 Z"
         id="path58" />
    </clipPath>
    <clipPath
       clipPathUnits="userSpaceOnUse"
       id="clipPath60">
      <path
         d="M 0,380 H 1875 V 0 H 0 Z"
         id="path60" />
    </clipPath>
    <clipPath
       clipPathUnits="userSpaceOnUse"
       id="clipPath62">
      <path
         d="M 0,380 H 1875 V 0 H 0 Z"
         id="path62" />
    </clipPath>
    <clipPath
       clipPathUnits="userSpaceOnUse"
       id="clipPath64">
      <path
         d="M 0,380 H 1875 V 0 H 0 Z"
         id="path64" />
    </clipPath>
    <clipPath
       clipPathUnits="userSpaceOnUse"
       id="clipPath66">
      <path
         d="M 0,380 H 1875 V 0 H 0 Z"
         id="path66" />
    </clipPath>
    <clipPath
       clipPathUnits="userSpaceOnUse"
       id="clipPath68">
      <path
         d="M 0,380 H 1875 V 0 H 0 Z"
         id="path68" />
    </clipPath>
    <clipPath
       clipPathUnits="userSpaceOnUse"
       id="clipPath70">
      <path
         d="M 0,380 H 1875 V 0 H 0 Z"
         id="path70" />
    </clipPath>
    <clipPath
       clipPathUnits="userSpaceOnUse"
       id="clipPath72">
      <path
         d="M 0,380 H 1875 V 0 H 0 Z"
         id="path72" />
    </clipPath>
    <clipPath
       clipPathUnits="userSpaceOnUse"
       id="clipPath74">
      <path
         d="M 0,380 H 1875 V 0 H 0 Z"
         id="path74" />
    </clipPath>
    <clipPath
       clipPathUnits="userSpaceOnUse"
       id="clipPath76">
      <path
         d="M 0,380 H 1875 V 0 H 0 Z"
         id="path76" />
    </clipPath>
    <clipPath
       clipPathUnits="userSpaceOnUse"
       id="clipPath78">
      <path
         d="M 0,380 H 1875 V 0 H 0 Z"
         id="path78" />
    </clipPath>
    <clipPath
       clipPathUnits="userSpaceOnUse"
       id="clipPath80">
      <path
         d="M 0,380 H 1875 V 0 H 0 Z"
         id="path80" />
    </clipPath>
    <clipPath
       clipPathUnits="userSpaceOnUse"
       id="clipPath82">
      <path
         d="M 0,380 H 1875 V 0 H 0 Z"
         id="path82" />
    </clipPath>
    <clipPath
       clipPathUnits="userSpaceOnUse"
       id="clipPath84">
      <path
         d="M 0,380 H 1875 V 0 H 0 Z"
         id="path84" />
    </clipPath>
    <clipPath
       clipPathUnits="userSpaceOnUse"
       id="clipPath86">
      <path
         d="M 0,380 H 1875 V 0 H 0 Z"
         id="path86" />
    </clipPath>
    <clipPath
       clipPathUnits="userSpaceOnUse"
       id="clipPath88">
      <path
         d="M 0,380 H 1875 V 0 H 0 Z"
         id="path88" />
    </clipPath>
    <clipPath
       clipPathUnits="userSpaceOnUse"
       id="clipPath90">
      <path
         d="M 0,380 H 1875 V 0 H 0 Z"
         id="path90" />
    </clipPath>
    <clipPath
       clipPathUnits="userSpaceOnUse"
       id="clipPath92">
      <path
         d="M 0,380 H 1875 V 0 H 0 Z"
         id="path92" />
    </clipPath>
    <clipPath
       clipPathUnits="userSpaceOnUse"
       id="clipPath94">
      <path
         d="M 0,380 H 1875 V 0 H 0 Z"
         id="path94" />
    </clipPath>
  </defs>
  <g
     inkscape:label="Ebene 1"
     inkscape:groupmode="layer"
     id="layer1"
     transform="translate(-46.118011,-57.186337)">
    <rect
       style="fill:none;stroke-width:0.138006"
       id="rect3"
       width="66.145836"
       height="31.75"
       x="46.118011"
       y="57.186337"
       rx="0"
       ry="0" />
    <rect
       style="fill:#000000;stroke-width:0.264583"
       id="rect5"
       width="0.52706301"
       height="1.054126"
       x="150.47649"
       y="37.421471"
       ry="0.26353151" />
    <g
       id="g5"
       transform="translate(-78.58125,-78.751308)">
      <path
         id="path1"
         d="m 124.69926,153.96182 h 66.14584 v -0.77859 h -66.14584 z"
         style="fill:#001789;fill-opacity:1;fill-rule:nonzero;stroke:none;stroke-width:0.0352778" />
      <path
         id="path2"
         d="m 124.69926,152.66498 h 66.14584 v -0.77859 h -66.14584 z"
         style="fill:#c00630;fill-opacity:1;fill-rule:nonzero;stroke:none;stroke-width:0.0352778" />
      <path
         id="path3"
         d="m 173.31239,151.36824 h 17.53264 v -0.77859 h -17.53264 z"
         style="fill:#fecd00;fill-opacity:1;fill-rule:nonzero;stroke:none;stroke-width:0.0352778" />
      <path
         id="path4"
         d="m 124.69926,151.36824 h 5.59082 v -0.77859 h -5.59082 z"
         style="fill:#fecd00;fill-opacity:1;fill-rule:nonzero;stroke:none;stroke-width:0.0352778" />
      <path
         id="path5"
         d="M 249.922,29.6484 H 238.32 v 27.2305 c 0,2.3008 -0.82,4.7227 -2.621,6.2109 -0.699,0.5 -2.07,1.1719 -4.25,1.1719 -4.219,0 -6.449,-3.0117 -7.347,-5.1601 -0.821,-1.9102 -1.051,-4.2227 -1.211,-8.3633 V 29.6484 h -11.442 v 25.1524 c 0,4.9687 -0.898,9.3008 -6.879,9.3008 -3.16,0 -6.289,-1.8321 -7.5,-4.9219 -0.511,-0.9805 -0.742,-2.3008 -1.05,-4.9609 V 29.6484 h -11.489 v 36.5235 l -0.312,5.5469 h 11.293 l 0.347,-5.8985 c 2.891,4.4883 7.661,6.8789 12.891,6.8789 5.82,0 10.199,-2.4687 12.93,-7.7773 2.808,4.1367 6.761,7.7773 14.101,7.7773 0.981,0 5.348,0.0703 9.059,-2.9687 4.34,-3.6407 4.93,-8.3594 5.082,-13.8711 z"
         style="fill:#87888a;fill-opacity:1;fill-rule:nonzero;stroke:none"
         transform="matrix(0.03527778,0,0,-0.03527778,124.69926,158.64703)"
         clip-path="url(#clipPath6)" />
      <path
         id="path7"
         d="m 285.781,48.8281 c -1.211,0.0821 -4.261,0.2305 -7.73,-0.1992 -0.352,-0.0391 -3.789,-0.2305 -6.063,-2.6094 -0.66,-0.7109 -1.519,-2.1093 -1.519,-3.9882 0,-0.5821 0.152,-1.3321 0.312,-1.9102 1.059,-2.9297 3.481,-4.0703 6.367,-4.0703 3.942,0 7.032,2.4687 8.082,4.1484 0.321,0.5821 0.551,1.5625 0.629,1.5625 z m 11.489,-1.5586 c -0.079,-3.4414 -0.079,-6.7578 0.07,-10.1601 0.16,-2.5 0.469,-4.961 0.781,-7.461 h -10.742 l -0.539,5.0821 c -0.238,-0.4297 -0.469,-0.9414 -0.82,-1.3321 -1.84,-2.3476 -6.61,-4.8086 -12.071,-4.8086 -7.929,0 -15.039,3.9883 -15.039,12.9297 0,1.1407 0,5.4688 4.02,9.1016 0.59,0.5898 2.269,1.8398 3.98,2.5781 4.5,1.9219 10.711,2.0703 15.238,2.2696 h 3.711 v 4.371 c -0.078,0.1993 -0.078,1.5313 -0.39,2.5821 -0.981,3.3164 -3.867,3.6289 -6.207,3.6289 -2.5,0 -5.16,-0.8906 -6.293,-3.2813 -0.43,-0.9297 -0.508,-2.0703 -0.508,-3.9804 h -11.602 c 0,5.5507 1.762,9.3007 6.84,11.8711 3.16,1.5703 7.922,2.0703 8.391,2.1484 1.211,0.082 2.351,0.082 3.64,0.082 0.891,0 5.661,0.1602 9.61,-1.6015 1.949,-0.6289 4.25,-2.5391 5.5,-4.1407 0.551,-0.7382 1.14,-2.0703 1.14,-2.1484 0.86,-2.1484 1.29,-4.2617 1.29,-8.5508 z"
         style="fill:#87888a;fill-opacity:1;fill-rule:nonzero;stroke:none"
         transform="matrix(0.03527778,0,0,-0.03527778,124.69926,158.64703)"
         clip-path="url(#clipPath8)" />
      <path
         id="path9"
         d="m 309.691,29.6484 h 11.5586 V 88.2382 H 309.691 Z"
         style="fill:#87888a;fill-opacity:1;fill-rule:nonzero;stroke:none"
         transform="matrix(0.03527778,0,0,-0.03527778,124.69926,158.64703)"
         clip-path="url(#clipPath10)" />
      <path
         id="path11"
         d="m 359.02,55.9414 c 0,4.918 -2.34,9.2188 -7.692,9.2188 -5.547,0 -7.969,-4.3008 -8.207,-9.3008 z m -16.211,-8.0508 c 0,-0.5508 -0.188,-2.2304 0.16,-4.0625 0.152,-0.8984 1.679,-7.6172 8.051,-7.6172 4.289,0 6.789,2.461 7.57,6.8008 l 12.39,-0.082 c -2.269,-9.9609 -10.199,-14.5313 -19.851,-14.5313 -12.77,0 -20.348,8.1211 -20.348,21.4805 0,12.7813 7.5,23.0899 20.739,23.0899 8.949,0 16.371,-5.4688 18.64,-14.5274 0.66,-2.6601 0.82,-5.1601 0.738,-10.5508 z"
         style="fill:#87888a;fill-opacity:1;fill-rule:nonzero;stroke:none"
         transform="matrix(0.03527778,0,0,-0.03527778,124.69926,158.64703)"
         clip-path="url(#clipPath12)" />
      <path
         id="path13"
         d="m 419.059,29.6484 h -11.52 v 25.9024 c -0.078,1.7187 -0.078,3.1601 -0.391,4.289 -0.429,1.6797 -2.5,4.7305 -6.289,4.7305 -3.48,0 -7.031,-2.3789 -8.238,-5.7812 -0.242,-0.8203 -0.32,-1.25 -0.32,-3.2383 V 29.6484 h -11.563 v 33.9414 c 0,1.4883 -0.078,2.9688 -0.148,4.5 l -0.469,3.711 h 11.359 l 0.399,-5.2422 c 1.793,1.9219 1.871,2.1914 3.859,3.4023 2.274,1.4102 5.282,2.9297 10.082,2.9297 4.801,0 8.008,-1.6015 11.02,-5.3125 0.148,-0.3476 0.781,-1.3281 1.211,-2.5 0.859,-2.5 0.929,-4.8789 1.008,-7.3789 z"
         style="fill:#87888a;fill-opacity:1;fill-rule:nonzero;stroke:none"
         transform="matrix(0.03527778,0,0,-0.03527778,124.69926,158.64703)"
         clip-path="url(#clipPath14)" />
      <path
         id="path15"
         d="m 456.879,8.91016 h 8.32031 v 82.8086 H 456.879 Z"
         style="fill:#87888a;fill-opacity:1;fill-rule:nonzero;stroke:none"
         transform="matrix(0.03527778,0,0,-0.03527778,124.69926,158.64703)"
         clip-path="url(#clipPath16)" />
      <path
         id="path17"
         d="m 513.09,59.0195 c -0.899,-2.5 -1.059,-4.8789 -1.059,-7.3789 0,-5.9023 1.207,-12.9687 8.239,-12.9687 1.019,0 1.679,0.1992 2.191,0.3476 0.629,0.1602 2.617,1.1797 3.949,3.4805 0.86,1.6797 1.602,4.9219 1.602,9.2188 0,3.4804 -0.391,8.121 -2.973,10.7812 -0.898,0.9414 -2.699,2.5781 -5.43,2.5 -3.398,-0.0781 -5.629,-2.8906 -6.519,-5.9805 m 15.39,12.7813 h 11.168 V 53.3984 l -0.117,-5.3867 v -2.7812 c 0,-3.5508 0,-7.1797 -0.082,-10.7813 -0.148,-4.5703 -0.39,-11.0898 -4.918,-15.6601 -5.23,-5.3086 -15.23,-4.8086 -15.39,-4.8086 -2.5,0 -4.063,0.1601 -6.563,0.8984 -6.598,1.5703 -9.769,5.4727 -10.308,12.6211 l 11.128,-0.0781 c 0.391,-4.1406 2.891,-6.25 6.954,-6.25 2.578,0 4.027,0.6679 5.16,1.6797 0.226,0.1601 0.816,0.7382 1.207,1.4101 0.23,0.5078 0.472,1.3281 0.703,2.2969 0.508,2.4219 0.43,4.7695 0.348,9.4609 -3.239,-3.289 -6.641,-5.1992 -11.36,-5.1992 -11.801,0 -16.101,10.1992 -16.101,21.0586 0,6.4024 1.882,12.0313 6.293,16.6016 2.027,1.8281 5.347,4.2187 10.199,4.2187 4.57,0 9.25,-2.1484 11.679,-6.289 z"
         style="fill:#87888a;fill-opacity:1;fill-rule:nonzero;stroke:none"
         transform="matrix(0.03527778,0,0,-0.03527778,124.69926,158.64703)"
         clip-path="url(#clipPath18)" />
      <path
         id="path19"
         d="m 577.5,55.9414 c 0,4.918 -2.34,9.2188 -7.66,9.2188 -5.578,0 -8,-4.3008 -8.238,-9.3008 z m -16.211,-8.0508 c 0,-0.5508 -0.16,-2.2304 0.16,-4.0625 0.153,-0.8984 1.672,-7.6172 8.082,-7.6172 4.258,0 6.758,2.461 7.578,6.8008 l 12.34,-0.082 c -2.258,-9.9609 -10.187,-14.5313 -19.84,-14.5313 -12.769,0 -20.347,8.1211 -20.347,21.4805 0,12.7813 7.5,23.0899 20.738,23.0899 8.949,0 16.371,-5.4688 18.629,-14.5274 0.672,-2.6601 0.82,-5.1601 0.75,-10.5508 z"
         style="fill:#87888a;fill-opacity:1;fill-rule:nonzero;stroke:none"
         transform="matrix(0.03527778,0,0,-0.03527778,124.69926,158.64703)"
         clip-path="url(#clipPath20)" />
      <path
         id="path21"
         d="m 622.301,59.4492 c -0.391,4.461 -2.422,5.7813 -6.52,5.7813 -0.16,0 -1.871,0 -2.851,-0.3907 -0.629,-0.1914 -3.051,-1.3203 -3.051,-3.6679 0,-1.7227 0.742,-2.2227 1.601,-2.8125 1.219,-0.7383 2.622,-1.168 5.161,-1.9102 l 6.8,-2 c 5.739,-1.5586 10.661,-4.5703 10.661,-11.4375 0,-11.1328 -10,-14.5312 -19.301,-14.5312 -1.281,0 -4.762,0 -8.473,1.5195 -5.898,2.4609 -8.629,6.2891 -8.629,13.0898 h 11.36 c 0,-0.3203 -0.149,-1.5703 0.203,-2.6601 1.008,-3.3984 4.648,-3.9805 6.91,-3.9805 0.43,0 3.008,0 4.769,1.4024 1.289,0.9375 1.95,2.5 1.95,3.75 0,2.6601 -2.422,3.6289 -4.532,4.2187 -0.16,0.0781 -0.308,0.0781 -0.589,0.1992 l -0.93,0.3086 c -0.238,0.0821 -0.43,0.0821 -0.59,0.1524 -5.469,1.4883 -8.48,2.0703 -11.129,3.3984 -3.051,1.6016 -4.609,3.3203 -5.32,4.9219 -0.422,0.668 -0.973,2.5781 -0.973,4.7305 0,0.9804 0.082,3.3984 1.602,6.207 0.66,1.0234 1.211,1.8398 2.031,2.6601 2.5,2.4219 6.949,4.4922 13.48,4.4922 0.899,0 5.579,-0.082 9.289,-1.5625 5.79,-2.1875 7.391,-6.0976 7.891,-11.9883 z"
         style="fill:#87888a;fill-opacity:1;fill-rule:nonzero;stroke:none"
         transform="matrix(0.03527778,0,0,-0.03527778,124.69926,158.64703)"
         clip-path="url(#clipPath22)" />
      <path
         id="path23"
         d="m 658.16,71.8008 h 8.949 V 63.75 H 657.93 V 44.2617 c 0,-0.8203 -0.352,-2.9336 1.05,-4.4922 1.219,-1.4882 2.899,-1.6484 4.418,-1.6484 1.293,0 2.032,0.0781 4.372,0.8281 v -8.789 c -2.93,-0.5118 -5.821,-0.9414 -8.711,-0.9414 -3.399,0 -5.899,0.7031 -8.789,2.4218 -1.641,1.25 -2.93,3.4805 -3.239,4.961 -0.39,1.3281 -0.472,2.9297 -0.312,6.5586 V 63.75 h -8.629 v 8.0508 h 8.789 l 0.152,7.6484 11.289,5.9805 z"
         style="fill:#87888a;fill-opacity:1;fill-rule:nonzero;stroke:none"
         transform="matrix(0.03527778,0,0,-0.03527778,124.69926,158.64703)"
         clip-path="url(#clipPath24)" />
      <path
         id="path25"
         d="m 700.551,48.8281 c -1.211,0.0821 -4.262,0.2305 -7.742,-0.1992 -0.348,-0.0391 -3.789,-0.2305 -6.047,-2.6094 -0.672,-0.7109 -1.563,-2.1093 -1.563,-3.9882 0,-0.5821 0.192,-1.3321 0.352,-1.9102 1.051,-2.9297 3.469,-4.0703 6.359,-4.0703 3.949,0 7.039,2.4687 8.09,4.1484 0.309,0.5821 0.551,1.5625 0.621,1.5625 z m 11.437,-1.5586 c -0.078,-3.4414 -0.078,-6.7578 0.121,-10.1601 0.161,-2.5 0.469,-4.961 0.782,-7.461 h -10.743 l -0.546,5.0821 c -0.231,-0.4297 -0.473,-0.9414 -0.821,-1.3321 -1.832,-2.3476 -6.601,-4.8086 -12.109,-4.8086 -7.891,0 -15,3.9883 -15,12.9297 0,1.1407 0,5.4688 4.027,9.1016 0.582,0.5898 2.262,1.8398 3.981,2.5781 4.492,1.9219 10.699,2.0703 15.23,2.2696 h 3.711 v 4.371 c -0.07,0.1993 -0.07,1.5313 -0.391,2.5821 -0.968,3.3164 -3.859,3.6289 -6.21,3.6289 -2.5,0 -5.149,-0.8906 -6.29,-3.2813 -0.429,-0.9297 -0.5,-2.0703 -0.5,-3.9804 h -11.609 c 0,5.5507 1.758,9.3007 6.84,11.8711 3.16,1.5703 7.93,2.0703 8.398,2.1484 1.211,0.082 2.34,0.082 3.629,0.082 0.903,0 5.672,0.1602 9.614,-1.6015 1.949,-0.6289 4.257,-2.5391 5.507,-4.1407 0.551,-0.7382 1.09,-2.0703 1.09,-2.1484 0.903,-2.1484 1.289,-4.2617 1.289,-8.5508 z"
         style="fill:#87888a;fill-opacity:1;fill-rule:nonzero;stroke:none"
         transform="matrix(0.03527778,0,0,-0.03527778,124.69926,158.64703)"
         clip-path="url(#clipPath26)" />
      <path
         id="path27"
         d="m 724.449,29.6484 h 11.5195 V 88.2382 H 724.449 Z"
         style="fill:#87888a;fill-opacity:1;fill-rule:nonzero;stroke:none"
         transform="matrix(0.03527778,0,0,-0.03527778,124.69926,158.64703)"
         clip-path="url(#clipPath28)" />
      <path
         id="path29"
         d="m 763.199,71.8008 h 8.949 V 63.75 h -9.179 V 44.2617 c 0,-0.8203 -0.309,-2.9336 1.051,-4.4922 1.21,-1.4882 2.89,-1.6484 4.421,-1.6484 1.289,0 2.028,0.0781 4.368,0.8281 v -8.789 c -2.887,-0.5118 -5.821,-0.9414 -8.707,-0.9414 -3.403,0 -5.903,0.7031 -8.793,2.4218 -1.637,1.25 -2.93,3.4805 -3.239,4.961 -0.429,1.3281 -0.468,2.9297 -0.308,6.5586 V 63.75 h -8.641 v 8.0508 h 8.789 l 0.16,7.6484 11.289,5.9805 z"
         style="fill:#87888a;fill-opacity:1;fill-rule:nonzero;stroke:none"
         transform="matrix(0.03527778,0,0,-0.03527778,124.69926,158.64703)"
         clip-path="url(#clipPath30)" />
      <path
         id="path31"
         d="m 807.699,55.9414 c 0,4.918 -2.347,9.2188 -7.66,9.2188 -5.59,0 -8.008,-4.3008 -8.238,-9.3008 z M 791.48,47.8906 c 0,-0.5508 -0.191,-2.2304 0.161,-4.0625 0.16,-0.8984 1.679,-7.6172 8.05,-7.6172 4.289,0 6.789,2.461 7.579,6.8008 l 12.378,-0.082 c -2.269,-9.9609 -10.199,-14.5313 -19.878,-14.5313 -12.739,0 -20.321,8.1211 -20.321,21.4805 0,12.7813 7.5,23.0899 20.75,23.0899 8.942,0 16.36,-5.4688 18.629,-14.5274 0.66,-2.6601 0.82,-5.1601 0.742,-10.5508 z"
         style="fill:#87888a;fill-opacity:1;fill-rule:nonzero;stroke:none"
         transform="matrix(0.03527778,0,0,-0.03527778,124.69926,158.64703)"
         clip-path="url(#clipPath32)" />
      <path
         id="path33"
         d="m 867.77,29.6484 h -11.559 v 25.9024 c -0.082,1.7187 -0.082,3.1601 -0.391,4.289 -0.429,1.6797 -2.5,4.7305 -6.332,4.7305 -3.437,0 -6.988,-2.3789 -8.199,-5.7812 -0.238,-0.8203 -0.309,-1.25 -0.309,-3.2383 V 29.6484 h -11.57 v 33.9414 c 0,1.4883 -0.07,2.9688 -0.148,4.5 l -0.473,3.711 h 11.371 l 0.391,-5.2422 c 1.789,1.9219 1.871,2.1914 3.859,3.4023 2.27,1.4102 5.281,2.9297 10.121,2.9297 4.77,0 7.969,-1.6015 10.938,-5.3125 0.191,-0.3476 0.82,-1.3281 1.25,-2.5 0.859,-2.5 0.941,-4.8789 1.051,-7.3789 z"
         style="fill:#87888a;fill-opacity:1;fill-rule:nonzero;stroke:none"
         transform="matrix(0.03527778,0,0,-0.03527778,124.69926,158.64703)"
         clip-path="url(#clipPath34)" />
      <path
         id="path35"
         d="m 905.551,8.91016 h 8.32031 v 82.8086 H 905.551 Z"
         style="fill:#87888a;fill-opacity:1;fill-rule:nonzero;stroke:none"
         transform="matrix(0.03527778,0,0,-0.03527778,124.69926,158.64703)"
         clip-path="url(#clipPath36)" />
      <path
         id="path37"
         d="m 951.641,29.6484 h 11.5586 V 88.2382 H 951.641 Z"
         style="fill:#87888a;fill-opacity:1;fill-rule:nonzero;stroke:none"
         transform="matrix(0.03527778,0,0,-0.03527778,124.69926,158.64703)"
         clip-path="url(#clipPath38)" />
      <path
         id="path39"
         d="m 998.871,48.8281 c -1.211,0.0821 -4.262,0.2305 -7.742,-0.1992 -0.309,-0.0391 -3.789,-0.2305 -6.051,-2.6094 -0.668,-0.7109 -1.527,-2.1093 -1.527,-3.9882 0,-0.5821 0.16,-1.3321 0.32,-1.9102 1.051,-2.9297 3.469,-4.0703 6.399,-4.0703 3.949,0 7,2.4687 8.05,4.1484 0.309,0.5821 0.551,1.5625 0.629,1.5625 z m 11.479,-1.5586 c -0.08,-3.4414 -0.08,-6.7578 0.08,-10.1601 0.16,-2.5 0.47,-4.961 0.82,-7.461 h -10.74 l -0.588,5.0821 c -0.231,-0.4297 -0.473,-0.9414 -0.82,-1.3321 -1.832,-2.3476 -6.602,-4.8086 -12.071,-4.8086 -7.929,0 -15.043,3.9883 -15.043,12.9297 0,1.1407 0,5.4688 4.063,9.1016 0.551,0.5898 2.269,1.8398 3.949,2.5781 4.488,1.9219 10.738,2.0703 15.23,2.2696 h 3.719 v 4.371 c -0.078,0.1993 -0.078,1.5313 -0.398,2.5821 -0.973,3.3164 -3.86,3.6289 -6.211,3.6289 -2.5,0 -5.149,-0.8906 -6.289,-3.2813 -0.43,-0.9297 -0.461,-2.0703 -0.461,-3.9804 h -11.641 c 0,5.5507 1.75,9.3007 6.871,11.8711 3.129,1.5703 7.891,2.0703 8.36,2.1484 1.211,0.082 2.34,0.082 3.629,0.082 0.902,0 5.671,0.1602 9.611,-1.6015 1.96,-0.6289 4.3,-2.5391 5.51,-4.1407 0.55,-0.7382 1.13,-2.0703 1.13,-2.1484 0.9,-2.1484 1.29,-4.2617 1.29,-8.5508 z"
         style="fill:#87888a;fill-opacity:1;fill-rule:nonzero;stroke:none"
         transform="matrix(0.03527778,0,0,-0.03527778,124.69926,158.64703)"
         clip-path="url(#clipPath40)" />
      <path
         id="path41"
         d="m 1048.12,56.5195 c -0.07,0.2422 0.08,2.2696 -0.78,4.3399 -0.82,2.0703 -2.93,4.1406 -6.4,4.1406 -7.35,0 -9.1,-7.6211 -9.1,-13.9492 0,-5.461 0.89,-14.7617 8.12,-14.7617 0.59,0 3.16,0 5.51,1.9922 2.19,2.0703 2.42,3.9882 2.42,6.9492 h 11.6 c -0.15,-2.3789 -0.31,-3.7813 -1.09,-6.1289 -0.28,-0.5821 -0.74,-1.9102 -1.06,-2.3828 -4.02,-6.168 -10.27,-8.2383 -17.26,-8.2383 -8.48,0 -16.1,3.8984 -18.71,12.6914 -1.1,2.9297 -1.21,6.4883 -1.21,9.5664 l 0.04,1.1406 v 0.582 c 0.89,13.1289 7.92,20.4297 21.01,20.4297 1.21,0 6.06,0 10.39,-2.2695 5.39,-3.1211 7.89,-7.5313 7.89,-14.1016 z"
         style="fill:#87888a;fill-opacity:1;fill-rule:nonzero;stroke:none"
         transform="matrix(0.03527778,0,0,-0.03527778,124.69926,158.64703)"
         clip-path="url(#clipPath42)" />
      <path
         id="path43"
         d="M 1080.2,88.2383 V 53.6289 l 14.6,18.0117 h 14.93 l -16.96,-18.2422 17.7,-23.75 h -15.12 l -15.08,22.7305 V 29.6484 h -11.87 v 58.5899 z"
         style="fill:#87888a;fill-opacity:1;fill-rule:nonzero;stroke:none"
         transform="matrix(0.03527778,0,0,-0.03527778,124.69926,158.64703)"
         clip-path="url(#clipPath44)" />
      <path
         id="path45"
         d="m 1129.06,78.8711 h -11.6367 v 10.3477 h 11.6367 z m -0.11,-49.2227 h -11.6094 v 42.0703 h 11.6094 z"
         style="fill:#87888a;fill-opacity:1;fill-rule:nonzero;stroke:none"
         transform="matrix(0.03527778,0,0,-0.03527778,124.69926,158.64703)"
         clip-path="url(#clipPath46)" />
      <path
         id="path47"
         d="m 1166.84,55.9414 c 0,4.918 -2.35,9.2188 -7.7,9.2188 -5.55,0 -7.97,-4.3008 -8.2,-9.3008 z m -16.25,-8.0508 c 0,-0.5508 -0.16,-2.2304 0.19,-4.0625 0.16,-0.8984 1.68,-7.6172 8.05,-7.6172 4.29,0 6.79,2.461 7.58,6.8008 l 12.38,-0.082 c -2.31,-9.9609 -10.2,-14.5313 -19.88,-14.5313 -12.74,0 -20.36,8.1211 -20.36,21.4805 0,12.7813 7.54,23.0899 20.75,23.0899 8.98,0 16.4,-5.4688 18.67,-14.5274 0.62,-2.6601 0.82,-5.1601 0.7,-10.5508 z"
         style="fill:#87888a;fill-opacity:1;fill-rule:nonzero;stroke:none"
         transform="matrix(0.03527778,0,0,-0.03527778,124.69926,158.64703)"
         clip-path="url(#clipPath48)" />
      <path
         id="path49"
         d="m 1198.87,71.7188 c 0.43,-3.5586 0.43,-4.418 0.43,-7.8907 0.08,0.2735 0.23,0.5117 0.31,0.8203 0.39,0.8633 1.52,3.5118 4.18,5.0821 2.93,1.6797 4.96,1.8281 8.98,1.75 v -9.8008 c -0.74,0 -4.1,0.3906 -6.95,-0.7383 -3.24,-1.332 -4.77,-4.2226 -5.23,-5.5508 -0.43,-1.25 -0.51,-3.5117 -0.67,-5.7422 v -20 h -11.52 v 31.8711 c -0.08,3.4024 -0.16,6.8008 -0.39,10.1993 z"
         style="fill:#87888a;fill-opacity:1;fill-rule:nonzero;stroke:none"
         transform="matrix(0.03527778,0,0,-0.03527778,124.69926,158.64703)"
         clip-path="url(#clipPath50)" />
      <path
         id="path51"
         d="m 1244.73,55.9414 c 0,4.918 -2.35,9.2188 -7.66,9.2188 -5.59,0 -8.01,-4.3008 -8.24,-9.3008 z m -16.21,-8.0508 c 0,-0.5508 -0.16,-2.2304 0.15,-4.0625 0.16,-0.8984 1.72,-7.6172 8.09,-7.6172 4.26,0 6.76,2.461 7.58,6.8008 l 12.34,-0.082 c -2.27,-9.9609 -10.16,-14.5313 -19.84,-14.5313 -12.78,0 -20.36,8.1211 -20.36,21.4805 0,12.7813 7.5,23.0899 20.75,23.0899 8.98,0 16.4,-5.4688 18.63,-14.5274 0.66,-2.6601 0.82,-5.1601 0.74,-10.5508 z"
         style="fill:#87888a;fill-opacity:1;fill-rule:nonzero;stroke:none"
         transform="matrix(0.03527778,0,0,-0.03527778,124.69926,158.64703)"
         clip-path="url(#clipPath52)" />
      <path
         id="path53"
         d="m 1304.8,29.6484 h -11.56 v 25.9024 c -0.08,1.7187 -0.08,3.1601 -0.39,4.289 -0.39,1.6797 -2.5,4.7305 -6.29,4.7305 -3.47,0 -7.03,-2.3789 -8.24,-5.7812 -0.23,-0.8203 -0.31,-1.25 -0.31,-3.2383 V 29.6484 h -11.56 v 33.9414 c 0,1.4883 -0.08,2.9688 -0.12,4.5 l -0.51,3.711 h 11.37 l 0.43,-5.2422 c 1.76,1.9219 1.83,2.1914 3.86,3.4023 2.27,1.4102 5.24,2.9297 10.08,2.9297 4.77,0 7.97,-1.6015 10.98,-5.3125 0.16,-0.3476 0.82,-1.3281 1.21,-2.5 0.9,-2.5 0.98,-4.8789 1.05,-7.3789 z"
         style="fill:#87888a;fill-opacity:1;fill-rule:nonzero;stroke:none"
         transform="matrix(0.03527778,0,0,-0.03527778,124.69926,158.64703)"
         clip-path="url(#clipPath54)" />
      <path
         id="path55"
         d="m 1342.62,8.91016 h 8.2773 v 82.8086 h -8.2773 z"
         style="fill:#87888a;fill-opacity:1;fill-rule:nonzero;stroke:none"
         transform="matrix(0.03527778,0,0,-0.03527778,124.69926,158.64703)"
         clip-path="url(#clipPath56)" />
      <path
         id="path57"
         d="m 1410.08,59.4492 c -0.39,4.461 -2.38,5.7813 -6.53,5.7813 -0.15,0 -1.83,0 -2.81,-0.3907 -0.66,-0.1914 -3.08,-1.3203 -3.08,-3.6679 0,-1.7227 0.74,-2.2227 1.64,-2.8125 1.21,-0.7383 2.58,-1.168 5.15,-1.9102 l 6.76,-2 c 5.74,-1.5586 10.67,-4.5703 10.67,-11.4375 0,-11.1328 -10,-14.5312 -19.3,-14.5312 -1.29,0 -4.77,0 -8.48,1.5195 -5.86,2.4609 -8.63,6.2891 -8.63,13.0898 h 11.41 c 0,-0.3203 -0.2,-1.5703 0.15,-2.6601 1.06,-3.3984 4.69,-3.9805 6.92,-3.9805 0.43,0 3,0 4.76,1.4024 1.29,0.9375 1.95,2.5 1.95,3.75 0,2.6601 -2.42,3.6289 -4.53,4.2187 -0.15,0.0781 -0.31,0.0781 -0.54,0.1992 l -0.98,0.3086 c -0.23,0.0821 -0.39,0.0821 -0.59,0.1524 -5.47,1.4883 -8.43,2.0703 -11.13,3.3984 -3.05,1.6016 -4.57,3.3203 -5.31,4.9219 -0.39,0.668 -0.98,2.5781 -0.98,4.7305 0,0.9804 0.08,3.3984 1.64,6.207 0.63,1.0234 1.17,1.8398 1.99,2.6601 2.5,2.4219 6.96,4.4922 13.48,4.4922 0.9,0 5.59,-0.082 9.3,-1.5625 5.82,-2.1875 7.42,-6.0976 7.89,-11.9883 z"
         style="fill:#87888a;fill-opacity:1;fill-rule:nonzero;stroke:none"
         transform="matrix(0.03527778,0,0,-0.03527778,124.69926,158.64703)"
         clip-path="url(#clipPath58)" />
      <path
         id="path59"
         d="m 1443.83,59.1797 c -1.02,-2.2305 -1.37,-4.3789 -1.37,-8.9492 0,-6.0508 1.88,-13.1992 9.06,-13.1992 7.35,0 9.1,7.8085 9.1,14.0195 0,3.5586 -0.7,6.4883 -1.21,7.7383 -0.07,0.2304 -0.39,0.9023 -0.89,1.7226 -2.58,4.0977 -6.06,4.2578 -7.43,4.1367 -4.25,-0.3086 -6.29,-3.4765 -7.26,-5.4687 m -1.53,-44.8789 h -11.44 V 63.75 l -0.47,8.1289 h 11.52 l 0.24,-6.3672 c 1.13,1.7891 1.68,2.2969 2.5,2.9688 2.93,3 7.11,4.4101 11.13,4.4101 11.29,0 16.41,-10.5508 16.41,-21.0117 0,-11.0195 -5.82,-23.207 -18.01,-23.207 -5.23,0 -8.4,1.9492 -11.88,5.5469 z"
         style="fill:#87888a;fill-opacity:1;fill-rule:nonzero;stroke:none"
         transform="matrix(0.03527778,0,0,-0.03527778,124.69926,158.64703)"
         clip-path="url(#clipPath60)" />
      <path
         id="path61"
         d="m 1507.23,55.9414 c 0,4.918 -2.35,9.2188 -7.7,9.2188 -5.55,0 -7.97,-4.3008 -8.2,-9.3008 z m -16.21,-8.0508 c 0,-0.5508 -0.16,-2.2304 0.15,-4.0625 0.16,-0.8984 1.68,-7.6172 8.05,-7.6172 4.3,0 6.8,2.461 7.62,6.8008 l 12.34,-0.082 c -2.27,-9.9609 -10.2,-14.5313 -19.84,-14.5313 -12.78,0 -20.36,8.1211 -20.36,21.4805 0,12.7813 7.5,23.0899 20.75,23.0899 8.94,0 16.36,-5.4688 18.63,-14.5274 0.62,-2.6601 0.82,-5.1601 0.74,-10.5508 z"
         style="fill:#87888a;fill-opacity:1;fill-rule:nonzero;stroke:none"
         transform="matrix(0.03527778,0,0,-0.03527778,124.69926,158.64703)"
         clip-path="url(#clipPath62)" />
      <path
         id="path63"
         d="m 1559.69,71.6406 v -8.8711 l -21.06,-24.7187 4.03,0.2305 h 17.61 v -8.6329 h -34.84 v 9.1407 l 21.37,24.8007 c -1.37,-0.3515 -2.85,-0.4296 -4.3,-0.4296 h -15.55 v 8.4804 z"
         style="fill:#87888a;fill-opacity:1;fill-rule:nonzero;stroke:none"
         transform="matrix(0.03527778,0,0,-0.03527778,124.69926,158.64703)"
         clip-path="url(#clipPath64)" />
      <path
         id="path65"
         d="m 1581.21,78.8711 h -11.6406 v 10.3477 h 11.6406 z m -0.12,-49.2227 h -11.6016 v 42.0703 h 11.6016 z"
         style="fill:#87888a;fill-opacity:1;fill-rule:nonzero;stroke:none"
         transform="matrix(0.03527778,0,0,-0.03527778,124.69926,158.64703)"
         clip-path="url(#clipPath66)" />
      <path
         id="path67"
         d="m 1618.98,55.9414 c 0,4.918 -2.34,9.2188 -7.69,9.2188 -5.55,0 -7.97,-4.3008 -8.2,-9.3008 z m -16.25,-8.0508 c 0,-0.5508 -0.15,-2.2304 0.16,-4.0625 0.2,-0.8984 1.72,-7.6172 8.09,-7.6172 4.29,0 6.79,2.461 7.57,6.8008 l 12.35,-0.082 c -2.27,-9.9609 -10.16,-14.5313 -19.85,-14.5313 -12.73,0 -20.35,8.1211 -20.35,21.4805 0,12.7813 7.5,23.0899 20.75,23.0899 8.98,0 16.4,-5.4688 18.67,-14.5274 0.62,-2.6601 0.78,-5.1601 0.7,-10.5508 z"
         style="fill:#87888a;fill-opacity:1;fill-rule:nonzero;stroke:none"
         transform="matrix(0.03527778,0,0,-0.03527778,124.69926,158.64703)"
         clip-path="url(#clipPath68)" />
      <path
         id="path69"
         d="m 1640.78,29.6484 h 11.5195 V 88.2382 H 1640.78 Z"
         style="fill:#87888a;fill-opacity:1;fill-rule:nonzero;stroke:none"
         transform="matrix(0.03527778,0,0,-0.03527778,124.69926,158.64703)"
         clip-path="url(#clipPath70)" />
      <path
         id="path71"
         d="m 1664.57,29.6484 h 11.5586 V 88.2382 H 1664.57 Z"
         style="fill:#87888a;fill-opacity:1;fill-rule:nonzero;stroke:none"
         transform="matrix(0.03527778,0,0,-0.03527778,124.69926,158.64703)"
         clip-path="url(#clipPath72)" />
      <path
         id="path73"
         d="m 1713.91,55.9414 c 0,4.918 -2.35,9.2188 -7.66,9.2188 -5.59,0 -8.01,-4.3008 -8.24,-9.3008 z m -16.21,-8.0508 c 0,-0.5508 -0.16,-2.2304 0.15,-4.0625 0.16,-0.8984 1.72,-7.6172 8.09,-7.6172 4.26,0 6.76,2.461 7.58,6.8008 l 12.34,-0.082 c -2.27,-9.9609 -10.16,-14.5313 -19.84,-14.5313 -12.78,0 -20.36,8.1211 -20.36,21.4805 0,12.7813 7.5,23.0899 20.75,23.0899 8.98,0 16.4,-5.4688 18.63,-14.5274 0.66,-2.6601 0.82,-5.1601 0.74,-10.5508 z"
         style="fill:#87888a;fill-opacity:1;fill-rule:nonzero;stroke:none"
         transform="matrix(0.03527778,0,0,-0.03527778,124.69926,158.64703)"
         clip-path="url(#clipPath74)" />
      <path
         id="path75"
         d="m 1758.71,59.4492 c -0.39,4.461 -2.42,5.7813 -6.52,5.7813 -0.16,0 -1.88,0 -2.81,-0.3907 -0.67,-0.1914 -3.09,-1.3203 -3.09,-3.6679 0,-1.7227 0.74,-2.2227 1.64,-2.8125 1.21,-0.7383 2.58,-1.168 5.16,-1.9102 l 6.75,-2 c 5.75,-1.5586 10.67,-4.5703 10.67,-11.4375 0,-11.1328 -10,-14.5312 -19.3,-14.5312 -1.29,0 -4.76,0 -8.48,1.5195 -5.85,2.4609 -8.59,6.2891 -8.59,13.0898 h 11.33 c 0,-0.3203 -0.12,-1.5703 0.19,-2.6601 1.06,-3.3984 4.65,-3.9805 6.96,-3.9805 0.39,0 2.97,0 4.72,1.4024 1.29,0.9375 1.96,2.5 1.96,3.75 0,2.6601 -2.42,3.6289 -4.53,4.2187 -0.16,0.0781 -0.32,0.0781 -0.55,0.1992 l -0.98,0.3086 c -0.23,0.0821 -0.39,0.0821 -0.58,0.1524 -5.47,1.4883 -8.44,2.0703 -11.14,3.3984 -3.04,1.6016 -4.57,3.3203 -5.31,4.9219 -0.39,0.668 -0.98,2.5781 -0.98,4.7305 0,0.9804 0.12,3.3984 1.65,6.207 0.62,1.0234 1.21,1.8398 1.99,2.6601 2.5,2.4219 6.95,4.4922 13.47,4.4922 0.9,0 5.59,-0.082 9.3,-1.5625 5.78,-2.1875 7.42,-6.0976 7.89,-11.9883 z"
         style="fill:#87888a;fill-opacity:1;fill-rule:nonzero;stroke:none"
         transform="matrix(0.03527778,0,0,-0.03527778,124.69926,158.64703)"
         clip-path="url(#clipPath76)" />
      <path
         id="path77"
         d="m 207.969,311.801 c 3.402,3.98 5.082,5.469 7.261,7.219 7.27,5.468 18.911,9.179 28.36,9.179 5.082,0 15.238,-1.211 25.672,-9.179 2.418,-2.032 5.078,-4.25 9.687,-8.75 12.102,10.468 22.031,18.21 38.512,18.21 16.488,0 33.199,-9.73 38.277,-25.671 2.422,-6.719 2.422,-14.18 2.422,-21.911 V 203.16 h -22.301 v 83.211 c 0,0.508 -0.468,5.969 -1.679,9.219 -3.399,9.211 -12.34,14.449 -21.801,14.449 -4.84,0 -14.527,-1.488 -22.07,-11.949 -6.289,-8.481 -6.52,-16.961 -6.52,-27.43 v -67.5 H 261.02 c -0.239,14.692 -0.239,29.418 0,43.871 0.23,11.207 1.21,21.41 -1.45,43.09 -0.98,3.238 -1.718,5.699 -2.929,8.469 -1.911,4.219 -6.02,11.961 -18.629,11.961 -8.481,0 -16.211,-3.75 -21.801,-9.961 -6.332,-7 -7.262,-14.461 -8.481,-24.418 V 203.441 H 184.961 V 324.73 h 21.801 z"
         style="fill:#000000;fill-opacity:1;fill-rule:nonzero;stroke:none"
         transform="matrix(0.03527778,0,0,-0.03527778,124.69926,158.64703)"
         clip-path="url(#clipPath78)" />
      <path
         id="path79"
         d="m 449.488,265.199 c -3.16,0 -11.398,0 -19.648,-2.969 -10.149,-3.75 -19.141,-11.21 -19.141,-23.441 0,-13.949 11.41,-20.668 23.992,-20.668 3.629,0 5.579,0.508 8.981,1.258 8.707,2.73 17.418,9.723 20.816,18.902 0.742,2.27 1.453,4.77 1.453,9.489 0.231,5.468 0.231,10.941 0,16.679 -5.55,0.512 -10.902,0.75 -16.453,0.75 m -55.226,26.172 c 0.226,3.238 0.468,11.949 6.047,19.918 8.711,12.461 23.48,14.691 27.582,15.43 2.461,0.269 7.769,1.011 14.3,1.011 4.879,0 8.469,0 13.36,-1.011 5.07,-0.739 22.258,-3.239 28.828,-20.16 2.891,-7.731 3.121,-15.938 3.121,-24.411 v -49.339 c 0.23,-12.93 0.738,-16.68 4.379,-29.137 h -23.52 l -2.187,12.93 c -11.871,-10.192 -20.313,-16.68 -36.332,-16.68 -2.649,0 -9.918,0.277 -17.18,3.008 -20.59,7.461 -23.75,27.148 -23.75,35.121 0,14.961 7.77,27.379 20.352,34.609 12.34,7.219 27.379,7.731 56.679,6.75 0.508,12.43 0.508,21.641 -9.691,28.36 -2.422,1.531 -8.711,4.769 -16.48,4.769 -11.879,0 -17.891,-6.758 -20.079,-10.98 -1.211,-2.219 -1.961,-4.957 -3.171,-10.469 z"
         style="fill:#000000;fill-opacity:1;fill-rule:nonzero;stroke:none"
         transform="matrix(0.03527778,0,0,-0.03527778,124.69926,158.64703)"
         clip-path="url(#clipPath80)" />
      <path
         id="path81"
         d="m 525.512,203.672 h 22.7695 V 378.551 H 525.512 Z"
         style="fill:#000000;fill-opacity:1;fill-rule:nonzero;stroke:none"
         transform="matrix(0.03527778,0,0,-0.03527778,124.69926,158.64703)"
         clip-path="url(#clipPath82)" />
      <path
         id="path83"
         d="m 661.641,276.172 c -0.231,2.457 -0.231,4.957 -0.469,7.457 -0.703,4.73 -1.684,15.199 -12.582,22.66 -6.789,4.492 -13.078,5 -16.012,5 -3.129,0 -8.707,-0.238 -15.238,-4.488 -11.399,-7.231 -13.32,-17.699 -15.5,-30.903 z m -59.34,-17.692 c 0.238,-3.25 0.508,-6.492 0.98,-9.46 0.739,-5.231 2.188,-16.95 13.789,-25.661 7.27,-5.468 13.828,-5.98 17.461,-5.98 9.449,0 18.629,4.73 23.239,13.672 1.492,2.777 2.699,5.75 4.14,12 l 22.539,-0.281 c -1.949,-9.68 -3.668,-17.18 -9.488,-25.149 -6.52,-8.48 -18.402,-16.922 -42.621,-16.922 -5.781,0 -19.61,0.473 -32.93,11.18 -15.781,12.461 -21.09,32.422 -21.09,52.57 0,23.442 8.481,38.641 14.301,45.821 9.68,12.23 25.43,18.441 40.93,18.441 8.988,0 15.75,-2.231 19.148,-3.481 20.852,-8.199 27.852,-28.39 29.801,-36.128 2.422,-9.692 2.422,-20.43 2.422,-30.622 z"
         style="fill:#000000;fill-opacity:1;fill-rule:nonzero;stroke:none"
         transform="matrix(0.03527778,0,0,-0.03527778,124.69926,158.64703)"
         clip-path="url(#clipPath84)" />
      <path
         id="path85"
         d="m 739.41,324.73 0.981,-14.929 c 15.98,14.418 20.82,16.449 41.91,17.929 v -24.41 c -1.711,0.231 -7.77,1.481 -13.121,1.481 -17.418,0 -25.16,-11.211 -27.852,-18.16 -1.68,-4.762 -1.68,-9.731 -1.918,-14.731 V 203.672 H 716.641 V 324.73 Z"
         style="fill:#000000;fill-opacity:1;fill-rule:nonzero;stroke:none"
         transform="matrix(0.03527778,0,0,-0.03527778,124.69926,158.64703)"
         clip-path="url(#clipPath86)" />
      <path
         id="path87"
         d="m 913.551,226.09 c 3.398,11.449 6.801,22.66 10.668,33.64 3.633,9.961 7.769,19.918 11.133,29.879 4.378,11.95 8.476,23.672 12.378,35.621 h 23.008 L 925.199,203.441 H 900.23 L 855.898,325.23 h 24.223 z"
         style="fill:#000000;fill-opacity:1;fill-rule:nonzero;stroke:none"
         transform="matrix(0.03527778,0,0,-0.03527778,124.69926,158.64703)"
         clip-path="url(#clipPath88)" />
      <path
         id="path89"
         d="m 1020.39,225.078 c 8.48,-7.187 17.42,-8.199 21.56,-8.199 17.66,0 26.41,15.699 28.32,20.66 1.72,3.75 3.4,8.711 4.38,17.691 0,1.25 0.7,7.469 0.7,12.469 0,3.981 0,15.422 -6.01,25.891 -2.93,5.238 -11.41,18.211 -28.36,18.211 -3.17,0 -9.46,-0.512 -16.25,-4.5 -8.25,-5.231 -16.96,-16.442 -18.17,-38.629 -0.47,-6.211 -1.95,-29.371 13.83,-43.594 m -27.152,78.012 c 14.532,23.39 37.072,25.621 46.762,25.621 12.11,0 21.33,-3.711 25.2,-5.473 30.74,-14.449 33.67,-47.578 33.67,-59.019 0,-7.231 -0.98,-25.16 -12.62,-41.598 -6.02,-8.242 -19.37,-22.422 -44.8,-22.422 -5.83,0 -24.97,1.25 -38.99,13.942 -1.95,1.757 -6.05,5.468 -9.448,11.718 -3.403,5.7 -10.903,21.411 -10.434,40.86 0.512,18.16 7.262,30.859 10.66,36.371"
         style="fill:#000000;fill-opacity:1;fill-rule:nonzero;stroke:none"
         transform="matrix(0.03527778,0,0,-0.03527778,124.69926,158.64703)"
         clip-path="url(#clipPath90)" />
      <path
         id="path91"
         d="m 1225.31,247.031 c -2.42,-12.972 -4.14,-18.711 -7.03,-23.941 -8.01,-15.199 -26.64,-22.43 -43.59,-22.43 -4.14,0 -17.46,0.281 -28.83,7 -11.17,6.719 -25.7,24.41 -25.7,55.539 0,21.922 7.77,45.86 26.17,57.539 11.64,7.461 26.4,7.973 30.78,7.973 18.91,0 36.8,-7.973 43.36,-26.91 1.68,-4.461 2.19,-7.461 2.89,-16.18 h -22.77 c -0.47,5.469 -0.94,8.481 -1.92,10.981 -3.87,9.449 -12.85,14.449 -22.77,14.449 -7.78,0 -13.09,-3.242 -15.74,-4.723 -13.32,-8.988 -15.75,-25.707 -15.75,-41.367 0,-13.481 2.43,-30.66 13.05,-39.84 2.46,-2.269 8.75,-6.762 18.2,-6.762 2.66,0 8.25,0.512 14.03,4.262 9.45,5.969 10.9,13.938 12.38,24.41 z"
         style="fill:#000000;fill-opacity:1;fill-rule:nonzero;stroke:none"
         transform="matrix(0.03527778,0,0,-0.03527778,124.69926,158.64703)"
         clip-path="url(#clipPath92)" />
      <path
         id="path93"
         d="M 1273.98,378.551 V 274.922 L 1321.25,325 h 27.58 l -50.12,-50.078 59.34,-71.762 h -30.51 l -53.56,68.52 v -68.239 h -22.77 v 175.11 z"
         style="fill:#000000;fill-opacity:1;fill-rule:nonzero;stroke:none"
         transform="matrix(0.03527778,0,0,-0.03527778,124.69926,158.64703)"
         clip-path="url(#clipPath94)" />
    </g>
  </g>
</svg>
